# xmcd
#
# Track frame offsets:
#	150
#	14542
#	34107
#	45990
#	68535
#	81592
#	96160
#	109522
#	126654
#	148622
#	158522
#	175757
#	186047
#	198760
#
# Disc length: 2823 seconds
#
# Revision: 0
# Processed by: cddbd v1.5.2PL0 Copyright (c) Steve Scherf et al.
# Submitted via: dBpowerAMP V4.0
#
DISCID=b30b050e
DTITLE=Eric Hughes Bans - Two In The Morning
DYEAR=2007
DGENRE=Blues
TTITLE0=Did You Have To Take The Dog, Too
TTITLE1=Holler If You Hear Me
TTITLE2=Muddy Waters Records
TTITLE3=Along Came You
TTITLE4=Chevy 2-Door
TTITLE5=Teeth In A Glass
TTITLE6=Volkswagon Blues
TTITLE7=Who'd Clean Up The Mess
TTITLE8=Crazy Joe
TTITLE9=The Eight-Fifteen
TTITLE10=Keep Your Mojo Hid
TTITLE11=Breaktime At The Brier Patch
TTITLE12=Furry's Gravesite Blues
TTITLE13=Wet Ribs
EXTD=
EXTT0=
EXTT1=
EXTT2=
EXTT3=
EXTT4=
EXTT5=
EXTT6=
EXTT7=
EXTT8=
EXTT9=
EXTT10=
EXTT11=
EXTT12=
EXTT13=
PLAYORDER=
